<svg width="24" height="24" viewBox="0 0 24 24" fill="none" xmlns="http://www.w3.org/2000/svg">
<path d="M14.1005 15.2773L17.2168 18.4878M8.51901 15.2773L5.40267 18.4878M5.40267 6.31693L8.51901 9.52734M17.2168 6.31693L14.1005 9.52734M15.0308 12.4023C15.0308 14.5194 13.3648 16.2357 11.3098 16.2357C9.2547 16.2357 7.58875 14.5194 7.58875 12.4023C7.58875 10.2853 9.2547 8.56901 11.3098 8.56901C13.3648 8.56901 15.0308 10.2853 15.0308 12.4023ZM19.682 12.4023C19.682 17.1658 15.9336 21.0273 11.3098 21.0273C6.68589 21.0273 2.9375 17.1658 2.9375 12.4023C2.9375 7.63889 6.68589 3.77734 11.3098 3.77734C15.9336 3.77734 19.682 7.63889 19.682 12.4023Z" stroke="#C3CED2" stroke-width="2" stroke-linecap="round" stroke-linejoin="round"/>
</svg>
