<svg width="25" height="25" viewBox="0 0 25 25" fill="none" xmlns="http://www.w3.org/2000/svg">
<path fill-rule="evenodd" clip-rule="evenodd" d="M12.1492 3.60215C7.01297 3.60215 2.84922 7.7659 2.84922 12.9021C2.84922 18.0384 7.01297 22.2021 12.1492 22.2021C17.2855 22.2021 21.4492 18.0384 21.4492 12.9021C21.4492 7.7659 17.2855 3.60215 12.1492 3.60215ZM1.44922 12.9021C1.44922 6.9927 6.23977 2.20215 12.1492 2.20215C18.0587 2.20215 22.8492 6.9927 22.8492 12.9021C22.8492 18.8116 18.0587 23.6021 12.1492 23.6021C6.23977 23.6021 1.44922 18.8116 1.44922 12.9021Z" fill="url(#paint0_linear_18698_14773)"/>
<path d="M12.3983 5.87215C11.6537 6.05166 11.0001 5.39765 11.1791 4.65315C11.2636 4.30314 11.5506 4.01614 11.9002 3.93214C12.6448 3.75264 13.2984 4.40665 13.1194 5.15115C13.0348 5.50065 12.7478 5.78765 12.3983 5.87215Z" fill="url(#paint1_linear_18698_14773)"/>
<path d="M15.0512 6.89632C14.3032 6.81199 13.9128 6.00219 14.3027 5.37001C14.4977 5.05317 14.8772 4.86607 15.2472 4.90798C15.9952 4.9923 16.3857 5.80211 15.9957 6.43428C15.8007 6.75112 15.4217 6.93823 15.0512 6.89632Z" fill="url(#paint2_linear_18698_14773)"/>
<path d="M16.8361 8.84759C16 8.54636 15.9044 7.46481 16.6751 7.02486C16.9107 6.8901 17.2067 6.86483 17.4623 6.95649C18.2985 7.25772 18.394 8.33927 17.6233 8.77922C17.3878 8.91398 17.0917 8.93974 16.8361 8.84759Z" fill="url(#paint3_linear_18698_14773)"/>
<path d="M5.40806 17.573C4.91413 17.0178 5.1576 16.1527 5.8795 15.9402C6.23696 15.8349 6.64291 15.9532 6.89037 16.2315C7.38431 16.7868 7.14084 17.6518 6.41893 17.8644C6.06148 17.9691 5.65553 17.8509 5.40806 17.573Z" fill="url(#paint4_linear_18698_14773)"/>
<path d="M17.4081 17.573C16.9141 17.0178 17.1576 16.1527 17.8795 15.9402C18.237 15.8349 18.6429 15.9532 18.8904 16.2315C19.3843 16.7868 19.1408 17.6518 18.4189 17.8644C18.0615 17.9691 17.6555 17.8509 17.4081 17.573Z" fill="url(#paint5_linear_18698_14773)"/>
<path d="M9.68139 6.74889C9.04909 7.13827 8.23957 6.74839 8.15497 6.00024C8.11342 5.62994 8.30015 5.2506 8.61705 5.05541C9.24934 4.66603 10.0589 5.05591 10.1435 5.80405C10.185 6.17486 9.99829 6.5537 9.68139 6.74889Z" fill="url(#paint6_linear_18698_14773)"/>
<path d="M8.0266 8.37612C7.58653 9.14683 6.50467 9.05163 6.2036 8.21509C6.11177 7.95937 6.13736 7.66364 6.27184 7.42817C6.71191 6.65746 7.79376 6.75266 8.09484 7.5892C8.18666 7.84442 8.16107 8.14065 8.0266 8.37612Z" fill="url(#paint7_linear_18698_14773)"/>
<path d="M6.14711 10.8256C6.19361 11.577 5.46269 12.1023 4.77126 11.8287C4.4248 11.6916 4.17482 11.3509 4.15133 10.9787C4.10483 10.2273 4.83575 9.70197 5.52718 9.97563C5.87364 10.1127 6.12411 10.4539 6.14711 10.8256Z" fill="url(#paint8_linear_18698_14773)"/>
<path d="M20.1471 10.8256C20.1936 11.577 19.4627 12.1023 18.7713 11.8287C18.4248 11.6916 18.1748 11.3509 18.1513 10.9787C18.1048 10.2273 18.8358 9.70197 19.5272 9.97563C19.8736 10.1127 20.1241 10.4539 20.1471 10.8256Z" fill="url(#paint9_linear_18698_14773)"/>
<path d="M6.07578 13.524C6.3493 14.2158 5.82426 14.9465 5.07271 14.9C4.70069 14.877 4.35967 14.6266 4.22266 14.2803C3.94914 13.5885 4.47417 12.8578 5.22572 12.9043C5.59775 12.9272 5.93877 13.1777 6.07578 13.524Z" fill="url(#paint10_linear_18698_14773)"/>
<path d="M20.0758 13.524C20.3493 14.2158 19.8243 14.9465 19.0727 14.9C18.7007 14.877 18.3597 14.6266 18.2227 14.2803C17.9491 13.5885 18.4742 12.8578 19.2257 12.9043C19.5977 12.9272 19.9388 13.1777 20.0758 13.524Z" fill="url(#paint11_linear_18698_14773)"/>
<path fill-rule="evenodd" clip-rule="evenodd" d="M17.0456 11.8133C17.319 12.0867 17.319 12.5299 17.0456 12.8033L12.4877 17.3612C12.2143 17.6346 11.7711 17.6346 11.4977 17.3612C11.2243 17.0879 11.2243 16.6447 11.4977 16.3713L16.0557 11.8133C16.329 11.54 16.7723 11.54 17.0456 11.8133Z" fill="url(#paint12_linear_18698_14773)"/>
<path d="M10.4497 17.5589C9.77862 15.5561 12.0953 14.2188 13.4943 15.8011C13.5702 15.8869 13.6302 15.9908 13.6668 16.0995C14.3379 18.1023 12.0212 19.4396 10.6222 17.8573C10.5463 17.7715 10.4863 17.6676 10.4497 17.5589Z" fill="white"/>
<path fill-rule="evenodd" clip-rule="evenodd" d="M11.5457 15.9418C11.164 16.1622 10.8836 16.6506 11.1134 17.3365L10.4497 17.5589L11.1129 17.3351C11.12 17.3561 11.133 17.3783 11.1465 17.3936C11.6256 17.9355 12.1891 17.9369 12.5708 17.7166C12.9525 17.4962 13.2329 17.0078 13.0031 16.3219L13.6668 16.0995L13.0035 16.3232C12.9965 16.3022 12.9835 16.2801 12.97 16.2648C12.4909 15.7229 11.9274 15.7214 11.5457 15.9418ZM14.0187 15.3373C13.0988 14.297 11.8043 14.176 10.8458 14.7294C9.88709 15.2828 9.34469 16.4644 9.78592 17.7813L9.78637 17.7826C9.85259 17.9789 9.95947 18.1646 10.0977 18.321M14.0187 15.3373C14.1569 15.4937 14.2639 15.6794 14.3301 15.8758L14.3306 15.8771C14.7718 17.194 14.2294 18.3756 13.2707 18.929C12.3121 19.4824 11.0176 19.3613 10.0977 18.321" fill="url(#paint13_linear_18698_14773)"/>
<defs>
<linearGradient id="paint0_linear_18698_14773" x1="-4.30901" y1="13.4653" x2="25.5135" y2="13.4653" gradientUnits="userSpaceOnUse">
<stop stop-color="#F9654F"/>
<stop offset="1" stop-color="#FF26E9"/>
</linearGradient>
<linearGradient id="paint1_linear_18698_14773" x1="-4.30901" y1="13.4653" x2="25.5135" y2="13.4653" gradientUnits="userSpaceOnUse">
<stop stop-color="#F9654F"/>
<stop offset="1" stop-color="#FF26E9"/>
</linearGradient>
<linearGradient id="paint2_linear_18698_14773" x1="-4.30901" y1="13.4653" x2="25.5135" y2="13.4653" gradientUnits="userSpaceOnUse">
<stop stop-color="#F9654F"/>
<stop offset="1" stop-color="#FF26E9"/>
</linearGradient>
<linearGradient id="paint3_linear_18698_14773" x1="-4.30901" y1="13.4653" x2="25.5135" y2="13.4653" gradientUnits="userSpaceOnUse">
<stop stop-color="#F9654F"/>
<stop offset="1" stop-color="#FF26E9"/>
</linearGradient>
<linearGradient id="paint4_linear_18698_14773" x1="-4.30901" y1="13.4653" x2="25.5135" y2="13.4653" gradientUnits="userSpaceOnUse">
<stop stop-color="#F9654F"/>
<stop offset="1" stop-color="#FF26E9"/>
</linearGradient>
<linearGradient id="paint5_linear_18698_14773" x1="-4.30901" y1="13.4653" x2="25.5135" y2="13.4653" gradientUnits="userSpaceOnUse">
<stop stop-color="#F9654F"/>
<stop offset="1" stop-color="#FF26E9"/>
</linearGradient>
<linearGradient id="paint6_linear_18698_14773" x1="-4.30901" y1="13.4653" x2="25.5135" y2="13.4653" gradientUnits="userSpaceOnUse">
<stop stop-color="#F9654F"/>
<stop offset="1" stop-color="#FF26E9"/>
</linearGradient>
<linearGradient id="paint7_linear_18698_14773" x1="-4.30901" y1="13.4653" x2="25.5135" y2="13.4653" gradientUnits="userSpaceOnUse">
<stop stop-color="#F9654F"/>
<stop offset="1" stop-color="#FF26E9"/>
</linearGradient>
<linearGradient id="paint8_linear_18698_14773" x1="-4.30901" y1="13.4653" x2="25.5135" y2="13.4653" gradientUnits="userSpaceOnUse">
<stop stop-color="#F9654F"/>
<stop offset="1" stop-color="#FF26E9"/>
</linearGradient>
<linearGradient id="paint9_linear_18698_14773" x1="-4.30901" y1="13.4653" x2="25.5135" y2="13.4653" gradientUnits="userSpaceOnUse">
<stop stop-color="#F9654F"/>
<stop offset="1" stop-color="#FF26E9"/>
</linearGradient>
<linearGradient id="paint10_linear_18698_14773" x1="-4.30901" y1="13.4653" x2="25.5135" y2="13.4653" gradientUnits="userSpaceOnUse">
<stop stop-color="#F9654F"/>
<stop offset="1" stop-color="#FF26E9"/>
</linearGradient>
<linearGradient id="paint11_linear_18698_14773" x1="-4.30901" y1="13.4653" x2="25.5135" y2="13.4653" gradientUnits="userSpaceOnUse">
<stop stop-color="#F9654F"/>
<stop offset="1" stop-color="#FF26E9"/>
</linearGradient>
<linearGradient id="paint12_linear_18698_14773" x1="-4.30901" y1="13.4653" x2="25.5135" y2="13.4653" gradientUnits="userSpaceOnUse">
<stop stop-color="#F9654F"/>
<stop offset="1" stop-color="#FF26E9"/>
</linearGradient>
<linearGradient id="paint13_linear_18698_14773" x1="-4.30901" y1="13.4653" x2="25.5135" y2="13.4653" gradientUnits="userSpaceOnUse">
<stop stop-color="#F9654F"/>
<stop offset="1" stop-color="#FF26E9"/>
</linearGradient>
</defs>
</svg>
