
<svg width="311" height="42" viewBox="0 0 311 42" fill="none" xmlns="http://www.w3.org/2000/svg">
<rect width="311" height="42" rx="8" fill="url(#paint0_linear_15129_4426)"/>
<path fill-rule="evenodd" clip-rule="evenodd" d="M79.2178 16.8889H92.5591C93.1488 16.8889 93.7144 17.123 94.1314 17.5398C94.5484 17.9565 94.7827 18.5217 94.7827 19.1111V25.7778C94.7827 26.3671 94.5484 26.9324 94.1314 27.3491C93.7144 27.7659 93.1488 28 92.5591 28H81.4413C80.8516 28 80.286 27.7659 79.869 27.3491C79.452 26.9324 79.2178 26.3671 79.2178 25.7778V16.8889Z" fill="white"/>
<path d="M79.2178 16.8889H92.5591C93.1488 16.8889 93.7144 17.123 94.1314 17.5398C94.5484 17.9565 94.7827 18.5217 94.7827 19.1111V25.7778C94.7827 26.3671 94.5484 26.9324 94.1314 27.3491C93.7144 27.7659 93.1488 28 92.5591 28H81.4413C80.8516 28 80.286 27.7659 79.869 27.3491C79.452 26.9324 79.2178 26.3671 79.2178 25.7778V16.8889ZM79.2178 16.8889H91.4473M79.2178 16.8889V15.1111C79.2178 14.8164 79.3349 14.5338 79.5434 14.3254C79.7519 14.1171 80.0347 14 80.3296 14H90.3355" stroke="white" stroke-width="1.5" stroke-linecap="round" stroke-linejoin="round"/>
<path d="M92.4936 22.1995C92.4936 22.5903 92.1765 22.9078 91.7844 22.9078C91.3923 22.9078 91.0752 22.5903 91.0752 22.1995C91.0752 21.8087 91.3923 21.4911 91.7844 21.4911C92.1765 21.4911 92.4936 21.8087 92.4936 22.1995Z" fill="#FE5E98" stroke="url(#paint1_radial_15129_4426)" stroke-width="1.5"/>
<path d="M108.114 26.2461C105.318 26.2461 103.582 24.2637 103.582 21.0781V21.0645C103.582 17.8652 105.312 15.8896 108.107 15.8896C110.35 15.8896 112.052 17.3115 112.284 19.3281V19.3828H110.555L110.548 19.3555C110.295 18.1865 109.352 17.4141 108.107 17.4141C106.433 17.4141 105.387 18.8154 105.387 21.0576V21.0713C105.387 23.3203 106.433 24.7217 108.114 24.7217C109.365 24.7217 110.295 24.0244 110.548 22.9375L110.555 22.9033H112.284V22.9512C112.024 24.9268 110.391 26.2461 108.114 26.2461ZM113.515 26V18.5283H115.217V19.6768H115.334C115.586 18.877 116.27 18.4053 117.254 18.4053C117.514 18.4053 117.781 18.4395 117.945 18.4873V20.0117C117.671 19.957 117.391 19.916 117.097 19.916C115.962 19.916 115.217 20.5928 115.217 21.6592V26H113.515ZM121.787 26.1504C119.566 26.1504 118.219 24.6602 118.219 22.2812V22.2744C118.219 19.9229 119.579 18.3848 121.705 18.3848C123.831 18.3848 125.144 19.875 125.144 22.1309V22.6914H119.921C119.942 24.0312 120.666 24.8105 121.821 24.8105C122.744 24.8105 123.271 24.3457 123.435 24.0039L123.455 23.9561H125.075L125.055 24.0176C124.816 24.9814 123.818 26.1504 121.787 26.1504ZM121.726 19.7178C120.776 19.7178 120.065 20.3604 119.935 21.5498H123.483C123.366 20.3262 122.676 19.7178 121.726 19.7178ZM128.323 26.123C126.901 26.123 125.869 25.248 125.869 23.8877V23.874C125.869 22.541 126.887 21.7617 128.706 21.6523L130.627 21.5361V20.8936C130.627 20.1484 130.141 19.7383 129.225 19.7383C128.446 19.7383 127.94 20.0186 127.769 20.5107L127.762 20.5381H126.156L126.163 20.4766C126.327 19.2188 127.53 18.3848 129.307 18.3848C131.228 18.3848 132.308 19.3145 132.308 20.8936V26H130.627V24.9746H130.51C130.1 25.6992 129.307 26.123 128.323 26.123ZM127.55 23.8057C127.55 24.4414 128.091 24.8174 128.842 24.8174C129.868 24.8174 130.627 24.1475 130.627 23.2588V22.6572L128.945 22.7666C127.995 22.8281 127.55 23.1768 127.55 23.792V23.8057ZM136.732 26.0342C135.016 26.0342 134.312 25.46 134.312 24.0176V19.8477H133.15V18.5283H134.312V16.6963H136.041V18.5283H137.62V19.8477H136.041V23.6143C136.041 24.3594 136.335 24.6738 137.046 24.6738C137.285 24.6738 137.415 24.667 137.62 24.6465V25.959C137.374 26.0068 137.06 26.0342 136.732 26.0342ZM141.887 26.1504C139.665 26.1504 138.318 24.6602 138.318 22.2812V22.2744C138.318 19.9229 139.679 18.3848 141.804 18.3848C143.93 18.3848 145.243 19.875 145.243 22.1309V22.6914H140.02C140.041 24.0312 140.765 24.8105 141.921 24.8105C142.844 24.8105 143.37 24.3457 143.534 24.0039L143.554 23.9561H145.175L145.154 24.0176C144.915 24.9814 143.917 26.1504 141.887 26.1504ZM141.825 19.7178C140.875 19.7178 140.164 20.3604 140.034 21.5498H143.582C143.466 20.3262 142.775 19.7178 141.825 19.7178ZM149.735 26V16.1357H151.499V20.6953H151.615L155.505 16.1357H157.528L153.809 20.4355L157.822 26H155.669L152.552 21.6045L151.499 22.8281V26H149.735ZM161.33 26.1504C159.087 26.1504 157.734 24.6875 157.734 22.2676V22.2539C157.734 19.8545 159.108 18.3848 161.33 18.3848C163.558 18.3848 164.925 19.8477 164.925 22.2539V22.2676C164.925 24.6875 163.565 26.1504 161.33 26.1504ZM161.33 24.7695C162.512 24.7695 163.182 23.8467 163.182 22.2744V22.2607C163.182 20.6885 162.505 19.7588 161.33 19.7588C160.147 19.7588 159.47 20.6885 159.47 22.2607V22.2744C159.47 23.8467 160.147 24.7695 161.33 24.7695ZM166.074 26V18.5283H167.776V19.6904H167.893C168.214 18.8564 168.966 18.3848 169.943 18.3848C170.955 18.3848 171.693 18.9043 172.015 19.7314H172.131C172.493 18.918 173.355 18.3848 174.394 18.3848C175.897 18.3848 176.8 19.3076 176.8 20.8594V26H175.098V21.2764C175.098 20.3057 174.653 19.8135 173.744 19.8135C172.856 19.8135 172.281 20.4766 172.281 21.3311V26H170.579V21.1533C170.579 20.3262 170.066 19.8135 169.232 19.8135C168.392 19.8135 167.776 20.5244 167.776 21.4541V26H166.074ZM181.456 26.1504C179.234 26.1504 177.887 24.6602 177.887 22.2812V22.2744C177.887 19.9229 179.248 18.3848 181.374 18.3848C183.5 18.3848 184.812 19.875 184.812 22.1309V22.6914H179.589C179.61 24.0312 180.335 24.8105 181.49 24.8105C182.413 24.8105 182.939 24.3457 183.103 24.0039L183.124 23.9561H184.744L184.723 24.0176C184.484 24.9814 183.486 26.1504 181.456 26.1504ZM181.394 19.7178C180.444 19.7178 179.733 20.3604 179.603 21.5498H183.151C183.035 20.3262 182.344 19.7178 181.394 19.7178ZM188.894 26.0342C187.178 26.0342 186.474 25.46 186.474 24.0176V19.8477H185.312V18.5283H186.474V16.6963H188.203V18.5283H189.782V19.8477H188.203V23.6143C188.203 24.3594 188.497 24.6738 189.208 24.6738C189.447 24.6738 189.577 24.667 189.782 24.6465V25.959C189.536 26.0068 189.222 26.0342 188.894 26.0342ZM195.512 26L193.489 18.5283H195.198L196.442 24.1406H196.558L197.993 18.5283H199.614L201.063 24.1406H201.179L202.416 18.5283H204.105L202.081 26H200.297L198.841 20.5859H198.725L197.276 26H195.512ZM206.86 26.123C205.438 26.123 204.406 25.248 204.406 23.8877V23.874C204.406 22.541 205.425 21.7617 207.243 21.6523L209.164 21.5361V20.8936C209.164 20.1484 208.679 19.7383 207.763 19.7383C206.983 19.7383 206.477 20.0186 206.306 20.5107L206.3 20.5381H204.693L204.7 20.4766C204.864 19.2188 206.067 18.3848 207.845 18.3848C209.765 18.3848 210.846 19.3145 210.846 20.8936V26H209.164V24.9746H209.048C208.638 25.6992 207.845 26.123 206.86 26.123ZM206.088 23.8057C206.088 24.4414 206.628 24.8174 207.38 24.8174C208.405 24.8174 209.164 24.1475 209.164 23.2588V22.6572L207.482 22.7666C206.532 22.8281 206.088 23.1768 206.088 23.792V23.8057ZM212.398 26V15.6367H214.1V26H212.398ZM215.762 26V15.6367H217.464V26H215.762ZM222.256 26.1504C220.035 26.1504 218.688 24.6602 218.688 22.2812V22.2744C218.688 19.9229 220.048 18.3848 222.174 18.3848C224.3 18.3848 225.613 19.875 225.613 22.1309V22.6914H220.39C220.411 24.0312 221.135 24.8105 222.291 24.8105C223.213 24.8105 223.74 24.3457 223.904 24.0039L223.924 23.9561H225.544L225.524 24.0176C225.285 24.9814 224.287 26.1504 222.256 26.1504ZM222.195 19.7178C221.245 19.7178 220.534 20.3604 220.404 21.5498H223.952C223.835 20.3262 223.145 19.7178 222.195 19.7178ZM229.694 26.0342C227.979 26.0342 227.274 25.46 227.274 24.0176V19.8477H226.112V18.5283H227.274V16.6963H229.004V18.5283H230.583V19.8477H229.004V23.6143C229.004 24.3594 229.298 24.6738 230.009 24.6738C230.248 24.6738 230.378 24.667 230.583 24.6465V25.959C230.337 26.0068 230.023 26.0342 229.694 26.0342Z" fill="white"/>
<defs>
<linearGradient id="paint0_linear_15129_4426" x1="-83.6827" y1="22.1053" x2="349.719" y2="22.1053" gradientUnits="userSpaceOnUse">
<stop stop-color="#F9654F"/>
<stop offset="1" stop-color="#FF26E9"/>
</linearGradient>
<radialGradient id="paint1_radial_15129_4426" cx="0" cy="0" r="1" gradientUnits="userSpaceOnUse" gradientTransform="translate(91.7801 20.7411) rotate(89.9164) scale(2.91667 2.91865)">
<stop stop-color="#FE73A5"/>
<stop offset="1" stop-color="#FE508F"/>
</radialGradient>
</defs>
</svg>
