<svg width="312" height="43" viewBox="0 0 312 43" fill="none" xmlns="http://www.w3.org/2000/svg">
<rect x="0.714844" y="0.5" width="311" height="42" rx="8" fill="url(#paint0_linear_19220_26377)"/>
<path fill-rule="evenodd" clip-rule="evenodd" d="M83.9336 17.3889H97.2749C97.8646 17.3889 98.4302 17.623 98.8472 18.0398C99.2642 18.4565 99.4985 19.0217 99.4985 19.6111V26.2778C99.4985 26.8671 99.2642 27.4324 98.8472 27.8491C98.4302 28.2659 97.8646 28.5 97.2749 28.5H86.1571C85.5674 28.5 85.0019 28.2659 84.5849 27.8491C84.1679 27.4324 83.9336 26.8671 83.9336 26.2778V17.3889Z" fill="white"/>
<path d="M83.9336 17.3889H97.2749C97.8646 17.3889 98.4302 17.623 98.8472 18.0398C99.2642 18.4565 99.4985 19.0217 99.4985 19.6111V26.2778C99.4985 26.8671 99.2642 27.4324 98.8472 27.8491C98.4302 28.2659 97.8646 28.5 97.2749 28.5H86.1571C85.5674 28.5 85.0019 28.2659 84.5849 27.8491C84.1679 27.4324 83.9336 26.8671 83.9336 26.2778V17.3889ZM83.9336 17.3889H96.1631M83.9336 17.3889V15.6111C83.9336 15.3164 84.0507 15.0338 84.2592 14.8254C84.4677 14.6171 84.7505 14.5 85.0454 14.5H95.0514" stroke="white" stroke-width="1.5" stroke-linecap="round" stroke-linejoin="round"/>
<path d="M97.2075 22.6995C97.2075 23.0903 96.8904 23.4079 96.4983 23.4079C96.1062 23.4079 95.7891 23.0903 95.7891 22.6995C95.7891 22.3088 96.1062 21.9912 96.4983 21.9912C96.8904 21.9912 97.2075 22.3088 97.2075 22.6995Z" fill="#FE5E98" stroke="url(#paint1_radial_19220_26377)" stroke-width="1.5"/>
<path d="M108.713 26.5V16.6357H110.477V25.0166H115.002V26.5H108.713ZM119.049 26.6504C116.807 26.6504 115.454 25.1875 115.454 22.7676V22.7539C115.454 20.3545 116.828 18.8848 119.049 18.8848C121.278 18.8848 122.645 20.3477 122.645 22.7539V22.7676C122.645 25.1875 121.285 26.6504 119.049 26.6504ZM119.049 25.2695C120.232 25.2695 120.902 24.3467 120.902 22.7744V22.7607C120.902 21.1885 120.225 20.2588 119.049 20.2588C117.867 20.2588 117.19 21.1885 117.19 22.7607V22.7744C117.19 24.3467 117.867 25.2695 119.049 25.2695ZM127.007 29.125C125.038 29.125 123.856 28.2842 123.685 27.0264L123.692 27.0059H125.394L125.401 27.0264C125.517 27.5049 126.084 27.8398 127.034 27.8398C128.196 27.8398 128.873 27.2998 128.873 26.3428V24.9141H128.757C128.326 25.7139 127.513 26.1514 126.481 26.1514C124.587 26.1514 123.411 24.6885 123.411 22.5693V22.5557C123.411 20.3955 124.587 18.9053 126.515 18.9053C127.547 18.9053 128.354 19.4111 128.777 20.2588H128.866V19.0283H130.568V26.3154C130.568 28.0381 129.188 29.125 127.007 29.125ZM127.007 24.7979C128.19 24.7979 128.901 23.8887 128.901 22.5693V22.5557C128.901 21.2363 128.183 20.3203 127.007 20.3203C125.824 20.3203 125.154 21.2363 125.154 22.5557V22.5693C125.154 23.8887 125.824 24.7979 127.007 24.7979ZM132.968 17.7773C132.408 17.7773 131.95 17.333 131.95 16.7725C131.95 16.2188 132.408 15.7676 132.968 15.7676C133.522 15.7676 133.98 16.2188 133.98 16.7725C133.98 17.333 133.522 17.7773 132.968 17.7773ZM132.114 26.5V19.0283H133.816V26.5H132.114ZM135.348 26.5V19.0283H137.05V20.1699H137.166C137.522 19.3701 138.239 18.8848 139.32 18.8848C140.988 18.8848 141.897 19.8896 141.897 21.667V26.5H140.195V22.0635C140.195 20.9014 139.723 20.3135 138.691 20.3135C137.679 20.3135 137.05 21.0244 137.05 22.1455V26.5H135.348ZM146.697 26.5V16.6357H148.46V21.1953H148.577L152.466 16.6357H154.49L150.771 20.9355L154.784 26.5H152.63L149.513 22.1045L148.46 23.3281V26.5H146.697ZM158.291 26.6504C156.049 26.6504 154.695 25.1875 154.695 22.7676V22.7539C154.695 20.3545 156.069 18.8848 158.291 18.8848C160.519 18.8848 161.887 20.3477 161.887 22.7539V22.7676C161.887 25.1875 160.526 26.6504 158.291 26.6504ZM158.291 25.2695C159.474 25.2695 160.143 24.3467 160.143 22.7744V22.7607C160.143 21.1885 159.467 20.2588 158.291 20.2588C157.108 20.2588 156.432 21.1885 156.432 22.7607V22.7744C156.432 24.3467 157.108 25.2695 158.291 25.2695ZM163.036 26.5V19.0283H164.738V20.1904H164.854C165.175 19.3564 165.927 18.8848 166.905 18.8848C167.916 18.8848 168.655 19.4043 168.976 20.2314H169.092C169.455 19.418 170.316 18.8848 171.355 18.8848C172.859 18.8848 173.761 19.8076 173.761 21.3594V26.5H172.059V21.7764C172.059 20.8057 171.615 20.3135 170.706 20.3135C169.817 20.3135 169.243 20.9766 169.243 21.8311V26.5H167.541V21.6533C167.541 20.8262 167.028 20.3135 166.194 20.3135C165.353 20.3135 164.738 21.0244 164.738 21.9541V26.5H163.036ZM178.417 26.6504C176.195 26.6504 174.849 25.1602 174.849 22.7812V22.7744C174.849 20.4229 176.209 18.8848 178.335 18.8848C180.461 18.8848 181.773 20.375 181.773 22.6309V23.1914H176.551C176.571 24.5312 177.296 25.3105 178.451 25.3105C179.374 25.3105 179.9 24.8457 180.064 24.5039L180.085 24.4561H181.705L181.685 24.5176C181.445 25.4814 180.447 26.6504 178.417 26.6504ZM178.356 20.2178C177.405 20.2178 176.694 20.8604 176.564 22.0498H180.112C179.996 20.8262 179.306 20.2178 178.356 20.2178ZM185.855 26.5342C184.139 26.5342 183.435 25.96 183.435 24.5176V20.3477H182.273V19.0283H183.435V17.1963H185.165V19.0283H186.744V20.3477H185.165V24.1143C185.165 24.8594 185.459 25.1738 186.17 25.1738C186.409 25.1738 186.539 25.167 186.744 25.1465V26.459C186.498 26.5068 186.183 26.5342 185.855 26.5342ZM192.473 26.5L190.45 19.0283H192.159L193.403 24.6406H193.519L194.955 19.0283H196.575L198.024 24.6406H198.14L199.378 19.0283H201.066L199.043 26.5H197.259L195.802 21.0859H195.686L194.237 26.5H192.473ZM203.822 26.623C202.4 26.623 201.367 25.748 201.367 24.3877V24.374C201.367 23.041 202.386 22.2617 204.204 22.1523L206.125 22.0361V21.3936C206.125 20.6484 205.64 20.2383 204.724 20.2383C203.945 20.2383 203.439 20.5186 203.268 21.0107L203.261 21.0381H201.655L201.661 20.9766C201.825 19.7188 203.029 18.8848 204.806 18.8848C206.727 18.8848 207.807 19.8145 207.807 21.3936V26.5H206.125V25.4746H206.009C205.599 26.1992 204.806 26.623 203.822 26.623ZM203.049 24.3057C203.049 24.9414 203.589 25.3174 204.341 25.3174C205.366 25.3174 206.125 24.6475 206.125 23.7588V23.1572L204.444 23.2666C203.493 23.3281 203.049 23.6768 203.049 24.292V24.3057ZM209.359 26.5V16.1367H211.061V26.5H209.359ZM212.723 26.5V16.1367H214.425V26.5H212.723ZM219.218 26.6504C216.996 26.6504 215.649 25.1602 215.649 22.7812V22.7744C215.649 20.4229 217.01 18.8848 219.136 18.8848C221.262 18.8848 222.574 20.375 222.574 22.6309V23.1914H217.352C217.372 24.5312 218.097 25.3105 219.252 25.3105C220.175 25.3105 220.701 24.8457 220.865 24.5039L220.886 24.4561H222.506L222.485 24.5176C222.246 25.4814 221.248 26.6504 219.218 26.6504ZM219.156 20.2178C218.206 20.2178 217.495 20.8604 217.365 22.0498H220.913C220.797 20.8262 220.106 20.2178 219.156 20.2178ZM226.656 26.5342C224.94 26.5342 224.236 25.96 224.236 24.5176V20.3477H223.074V19.0283H224.236V17.1963H225.965V19.0283H227.544V20.3477H225.965V24.1143C225.965 24.8594 226.259 25.1738 226.97 25.1738C227.209 25.1738 227.339 25.167 227.544 25.1465V26.459C227.298 26.5068 226.984 26.5342 226.656 26.5342Z" fill="white"/>
<defs>
<linearGradient id="paint0_linear_19220_26377" x1="-82.9679" y1="22.6053" x2="350.434" y2="22.6053" gradientUnits="userSpaceOnUse">
<stop stop-color="#F9654F"/>
<stop offset="1" stop-color="#FF26E9"/>
</linearGradient>
<radialGradient id="paint1_radial_19220_26377" cx="0" cy="0" r="1" gradientUnits="userSpaceOnUse" gradientTransform="translate(96.494 21.2412) rotate(89.9164) scale(2.91667 2.91865)">
<stop stop-color="#FE73A5"/>
<stop offset="1" stop-color="#FE508F"/>
</radialGradient>
</defs>
</svg>
