<svg width="24" height="24" viewBox="0 0 24 24" fill="none" xmlns="http://www.w3.org/2000/svg">
<path d="M5.74805 20.8226L7.27201 19.6035L7.28322 19.5949C7.60093 19.3407 7.76125 19.2124 7.94012 19.1211C8.1006 19.0391 8.27172 18.9794 8.44824 18.9431C8.64721 18.9023 8.85447 18.9023 9.27051 18.9023H17.9515C19.0694 18.9023 19.629 18.9023 20.0564 18.6845C20.4327 18.4928 20.7389 18.1865 20.9306 17.8102C21.1484 17.3828 21.1484 16.8238 21.1484 15.7059V8.09925C21.1484 6.98133 21.1484 6.42154 20.9306 5.99414C20.7389 5.61781 20.4321 5.31207 20.0558 5.12033C19.628 4.90234 19.0687 4.90234 17.9486 4.90234H6.34864C5.22853 4.90234 4.66806 4.90234 4.24024 5.12033C3.86391 5.31207 3.55817 5.61781 3.36643 5.99414C3.14844 6.42196 3.14844 6.98243 3.14844 8.10254V19.5735C3.14844 20.6392 3.14844 21.1719 3.3669 21.4456C3.55689 21.6836 3.84488 21.8221 4.14942 21.8218C4.49959 21.8214 4.91588 21.4884 5.74805 20.8226Z" stroke="#C3CED2" stroke-width="2" stroke-linecap="round" stroke-linejoin="round"/>
</svg>
