<svg width="24" height="24" viewBox="0 0 24 24" fill="none" xmlns="http://www.w3.org/2000/svg">
<path d="M21.0079 8.02637L21.7521 8.1194V8.11939L21.0079 8.02637ZM20.2579 14.0263L21.0021 14.1194L21.0021 14.1194L20.2579 14.0263ZM2.14844 4.15234C1.73422 4.15234 1.39844 4.48813 1.39844 4.90234C1.39844 5.31656 1.73422 5.65234 2.14844 5.65234V4.15234ZM5.34768 5.64237L4.62347 5.83735L4.62347 5.83735L5.34768 5.64237ZM8.4492 17.1623L7.72499 17.3573L7.72499 17.3573L8.4492 17.1623ZM19.1484 18.6523C19.5627 18.6523 19.8984 18.3166 19.8984 17.9023C19.8984 17.4881 19.5627 17.1523 19.1484 17.1523V18.6523ZM5.48175 7.65234H20.0156V6.15234H5.48175V7.65234ZM20.0156 7.65234C20.166 7.65234 20.2824 7.78416 20.2637 7.93336L21.7521 8.11939C21.8827 7.07489 21.0682 6.15234 20.0156 6.15234V7.65234ZM20.2637 7.93335L19.5137 13.9333L21.0021 14.1194L21.7521 8.1194L20.2637 7.93335ZM19.5137 13.9333C19.4981 14.0585 19.3917 14.1523 19.2656 14.1523V15.6523C20.1482 15.6523 20.8926 14.9952 21.0021 14.1194L19.5137 13.9333ZM2.14844 5.65234H4.38206V4.15234H2.14844V5.65234ZM4.38206 5.65234C4.4951 5.65234 4.59408 5.7282 4.62347 5.83735L6.07189 5.4474C5.86618 4.68331 5.17333 4.15234 4.38206 4.15234V5.65234ZM4.62347 5.83735L7.72499 17.3573L9.17341 16.9674L6.07189 5.44739L4.62347 5.83735ZM7.72499 17.3573C7.93071 18.1214 8.62356 18.6523 9.41482 18.6523V17.1523C9.30175 17.1523 9.20279 17.0765 9.17341 16.9674L7.72499 17.3573ZM9.41482 18.6523H19.1484V17.1523H9.41482V18.6523ZM10.3984 20.9023C10.3984 21.0404 10.2865 21.1523 10.1484 21.1523V22.6523C11.1149 22.6523 11.8984 21.8688 11.8984 20.9023H10.3984ZM10.1484 21.1523C10.0104 21.1523 9.89844 21.0404 9.89844 20.9023H8.39844C8.39844 21.8688 9.18194 22.6523 10.1484 22.6523V21.1523ZM9.89844 20.9023C9.89844 20.7643 10.0104 20.6523 10.1484 20.6523V19.1523C9.18194 19.1523 8.39844 19.9358 8.39844 20.9023H9.89844ZM10.1484 20.6523C10.2865 20.6523 10.3984 20.7643 10.3984 20.9023H11.8984C11.8984 19.9358 11.1149 19.1523 10.1484 19.1523V20.6523ZM17.8984 20.9023C17.8984 21.0404 17.7865 21.1523 17.6484 21.1523V22.6523C18.6149 22.6523 19.3984 21.8688 19.3984 20.9023H17.8984ZM17.6484 21.1523C17.5104 21.1523 17.3984 21.0404 17.3984 20.9023H15.8984C15.8984 21.8688 16.6819 22.6523 17.6484 22.6523V21.1523ZM17.3984 20.9023C17.3984 20.7643 17.5104 20.6523 17.6484 20.6523V19.1523C16.6819 19.1523 15.8984 19.9358 15.8984 20.9023H17.3984ZM17.6484 20.6523C17.7865 20.6523 17.8984 20.7643 17.8984 20.9023H19.3984C19.3984 19.9358 18.6149 19.1523 17.6484 19.1523V20.6523ZM19.2656 14.1523H8.14842V15.6523H19.2656V14.1523Z" fill="#C3CED2"/>
</svg>
