<svg width="129" height="17" viewBox="0 0 129 17" fill="none" xmlns="http://www.w3.org/2000/svg">
<path opacity="0.6" d="M1.34416 14.6207H0.0559701L1.86673 6.08941H3.14278L2.92403 7.08594H2.94833C3.35545 6.41753 4.13323 5.98003 4.95962 5.98003C6.38757 5.98003 7.27472 7.03125 7.27472 8.6658C7.27472 10.9323 5.90146 12.6094 4.09677 12.6094C3.11847 12.6094 2.34069 12.0503 2.09156 11.2543H2.06118L1.34416 14.6207ZM3.96916 11.4427C5.10545 11.4427 5.97437 10.3307 5.97437 8.82378C5.97437 7.76649 5.43965 7.1224 4.54035 7.1224C3.27646 7.1224 2.4683 8.39236 2.4683 9.82031C2.4683 10.7743 3.05771 11.4427 3.96916 11.4427ZM10.9028 5.96181C12.5738 5.96181 13.6615 7.09201 13.6615 8.80556C13.6615 10.9687 12.2153 12.6215 10.283 12.6215C8.60594 12.6215 7.52434 11.4913 7.52434 9.78385C7.52434 7.62066 8.97052 5.96181 10.9028 5.96181ZM10.3012 11.4731C11.4801 11.4731 12.3368 10.3368 12.3368 8.84201C12.3368 7.79687 11.7717 7.11024 10.8785 7.11024C9.69969 7.11024 8.84291 8.24653 8.84291 9.7474C8.84291 10.7925 9.4141 11.4731 10.3012 11.4731ZM22.9832 6.08941L19.9085 12.5H18.5352L18.2253 7.73003H18.201L15.9163 12.5H14.5066L14.1116 6.08941H15.3269L15.5153 11.0538H15.5396L17.8668 6.08941H19.149L19.4163 11.0538H19.4406L21.6767 6.08941H22.9832ZM24.9342 12.6337C23.1842 12.6337 22.2362 11.4609 22.2362 9.77778C22.2362 7.65104 23.567 5.96181 25.4871 5.96181C27.0974 5.96181 28.1243 7.01302 28.1243 8.68403C28.1243 8.96962 28.1121 9.31597 28.0574 9.60764H23.5123C23.5001 9.68056 23.5001 9.75347 23.5001 9.82031C23.5001 10.8594 24.0713 11.5156 24.9706 11.5156C25.7606 11.5156 26.3257 11.1146 26.5809 10.4948H27.8387C27.5045 11.7222 26.3682 12.6337 24.9342 12.6337ZM23.6581 8.65365H26.8422C26.8482 8.60503 26.8543 8.53212 26.8543 8.47743C26.8543 7.74219 26.429 7.06771 25.4567 7.06771C24.5331 7.06771 23.8951 7.74826 23.6581 8.65365ZM27.9789 12.5L29.334 6.08941H30.5796L30.4034 6.95833H30.4338C30.8105 6.375 31.3939 5.99219 32.1777 5.99219C32.4998 5.99219 32.7793 6.0651 32.9433 6.1441L32.676 7.40799C32.5058 7.32899 32.1595 7.25 31.8435 7.25C30.8287 7.25 30.2819 7.8151 30.0449 8.89062L29.2793 12.5H27.9789ZM34.9369 12.6337C33.1869 12.6337 32.239 11.4609 32.239 9.77778C32.239 7.65104 33.5697 5.96181 35.4898 5.96181C37.1001 5.96181 38.127 7.01302 38.127 8.68403C38.127 8.96962 38.1148 9.31597 38.0601 9.60764H33.515C33.5028 9.68056 33.5028 9.75347 33.5028 9.82031C33.5028 10.8594 34.074 11.5156 34.9733 11.5156C35.7633 11.5156 36.3284 11.1146 36.5836 10.4948H37.8414C37.5072 11.7222 36.3709 12.6337 34.9369 12.6337ZM33.6608 8.65365H36.8449C36.8509 8.60503 36.857 8.53212 36.857 8.47743C36.857 7.74219 36.4317 7.06771 35.4594 7.06771C34.5358 7.06771 33.8978 7.74826 33.6608 8.65365ZM40.7099 12.6094C39.2759 12.6094 38.3827 11.5521 38.3827 9.92361C38.3827 7.66319 39.7681 5.98003 41.5789 5.98003C42.5815 5.98003 43.3835 6.56337 43.5841 7.33507H43.6205L44.3983 3.73177H45.7047L43.8332 12.5H42.5389L42.7516 11.5095H42.7212C42.3202 12.1536 41.5485 12.6094 40.7099 12.6094ZM41.1231 11.4609C42.308 11.4609 43.1952 10.2882 43.1952 8.76302C43.1952 7.8151 42.6118 7.1467 41.6943 7.1467C40.5641 7.1467 39.6952 8.2526 39.6952 9.78993C39.6952 10.8229 40.2299 11.4609 41.1231 11.4609ZM50.7066 12.6094C49.71 12.6094 48.8593 12.026 48.6467 11.2179H48.6102L48.3428 12.5H47.0972L48.9626 3.73177H50.2569L49.546 7.06771H49.5703C49.9288 6.42361 50.7005 5.98003 51.5147 5.98003C52.9366 5.98003 53.8602 6.98872 53.8602 8.69618C53.8602 10.7378 52.651 12.6094 50.7066 12.6094ZM50.5729 11.4427C51.7578 11.4427 52.5416 10.2578 52.5416 8.81163C52.5416 7.77257 52.0191 7.1224 51.1015 7.1224C49.8862 7.1224 49.0416 8.3559 49.0416 9.82031C49.0416 10.7743 49.6553 11.4427 50.5729 11.4427ZM53.7696 14.8394C53.5326 14.8394 53.1376 14.7969 53.0161 14.7604L53.2166 13.6484C53.326 13.691 53.5994 13.7214 53.7999 13.7214C54.2617 13.7214 54.6992 13.4965 55.0274 12.7917C55.0274 12.7795 55.1975 12.4514 55.1914 12.4453L54.2253 6.08941H55.5256L56.1515 11.1814H56.1758L58.813 6.08941H60.2288L56.3702 12.9983C55.5985 14.4201 54.8511 14.8394 53.7696 14.8394Z" fill="#121212"/>
<path d="M66.4516 9.0423L69.8226 13.6734H72.991L68.7419 8.49395L72.8375 3.31445H69.8226L66.4516 7.9456V3.31445H64.0938V13.6734H66.4516V9.0423Z" fill="url(#paint0_linear_19220_26389)"/>
<path d="M85.141 8.48553C85.141 10.0829 83.6489 11.5432 82.0033 11.5432C80.3578 11.5432 78.8657 10.0829 78.8657 8.48553C78.8657 6.88221 80.3578 5.43386 82.0033 5.43386C83.6489 5.43386 85.141 6.88221 85.141 8.48553ZM87.4927 8.49745C87.4927 5.63651 84.9507 3.16895 82.0033 3.16895C79.0499 3.16895 76.5078 5.63651 76.5078 8.49745C76.5078 11.3644 79.0499 13.8319 82.0033 13.8319C84.9507 13.8319 87.4927 11.3644 87.4927 8.49745Z" fill="url(#paint1_linear_19220_26389)"/>
<path d="M105.416 13.6715L103.346 3.3125H100.552L98.342 10.5781L96.1131 3.3125H93.3193L91.25 13.6715H93.835L95.0938 6.5251L97.1815 13.6715H99.4841L101.572 6.5251L102.831 13.6715H105.416Z" fill="url(#paint2_linear_19220_26389)"/>
<path d="M115.75 11.5973H111.924V9.51121H115.596V7.44299H111.924V5.38668H115.75V3.3125H109.566V13.6715H115.75V11.5973Z" fill="url(#paint3_linear_19220_26389)"/>
<path d="M125.288 5.38864H128.333V3.31445H119.891V5.38864H122.936V13.6734H125.288V5.38864Z" fill="url(#paint4_linear_19220_26389)"/>
<defs>
<linearGradient id="paint0_linear_19220_26389" x1="61.6997" y1="8.76656" x2="74.0987" y2="8.76656" gradientUnits="userSpaceOnUse">
<stop stop-color="#F9654F"/>
<stop offset="1" stop-color="#FF26E9"/>
</linearGradient>
<linearGradient id="paint1_linear_19220_26389" x1="73.552" y1="8.78104" x2="88.8603" y2="8.78104" gradientUnits="userSpaceOnUse">
<stop stop-color="#F9654F"/>
<stop offset="1" stop-color="#FF26E9"/>
</linearGradient>
<linearGradient id="paint2_linear_19220_26389" x1="87.4384" y1="8.7646" x2="107.179" y2="8.7646" gradientUnits="userSpaceOnUse">
<stop stop-color="#F9654F"/>
<stop offset="1" stop-color="#FF26E9"/>
</linearGradient>
<linearGradient id="paint3_linear_19220_26389" x1="107.903" y1="8.7646" x2="116.519" y2="8.7646" gradientUnits="userSpaceOnUse">
<stop stop-color="#F9654F"/>
<stop offset="1" stop-color="#FF26E9"/>
</linearGradient>
<linearGradient id="paint4_linear_19220_26389" x1="117.619" y1="8.76656" x2="129.385" y2="8.76656" gradientUnits="userSpaceOnUse">
<stop stop-color="#F9654F"/>
<stop offset="1" stop-color="#FF26E9"/>
</linearGradient>
</defs>
</svg>
