<svg width="504" height="256" viewBox="0 0 504 256" fill="none" xmlns="http://www.w3.org/2000/svg">
<circle cx="253.219" cy="87.9282" r="68.1841" fill="white"/>
<g filter="url(#filter0_dd_7823_19467)">
<ellipse cx="252.188" cy="87.5994" rx="42.6259" ry="42.5994" fill="#7BE39A" shape-rendering="crispEdges"/>
<path d="M252.188 133.699C277.661 133.699 298.314 113.061 298.314 87.5994C298.314 62.1374 277.661 41.5 252.188 41.5C226.716 41.5 206.062 62.1374 206.062 87.5994C206.062 113.061 226.716 133.699 252.188 133.699Z" stroke="#077B29" stroke-opacity="0.2" stroke-width="7" shape-rendering="crispEdges"/>
</g>
<path d="M238.211 90.3809L247.04 100.381L268.23 76.3809" stroke="#0E5323" stroke-width="5" stroke-linecap="round" stroke-linejoin="round"/>
<circle opacity="0.4" cx="180.519" cy="59.0303" r="5.87015" fill="#7BE39A"/>
<circle opacity="0.4" cx="295.665" cy="48.6438" r="10.8372" fill="#7BE39A"/>
<circle opacity="0.4" cx="199.935" cy="149.792" r="10.8372" fill="#7BE39A"/>
<circle opacity="0.4" cx="322.759" cy="138.954" r="10.8372" fill="#7BE39A"/>
<circle opacity="0.4" cx="138.523" cy="57.6757" r="4.5155" fill="#FFD53D"/>
<circle opacity="0.4" cx="338.108" cy="59.4827" r="2.7093" fill="#FFD53D"/>
<circle opacity="0.4" cx="223.415" cy="22.4545" r="6.3217" fill="#7BE39A"/>
<rect opacity="0.4" width="0.9031" height="34.3178" rx="0.45155" transform="matrix(-1 0 0 1 321.852 146.18)" fill="url(#paint0_linear_7823_19467)"/>
<path d="M163.555 216.091V199.181H166.18V216.091H163.555ZM170.129 216.091V203.365H172.672V205.298H172.859C173.48 203.939 174.699 203.119 176.551 203.119C179.398 203.119 180.969 204.818 180.969 207.853V216.091H178.438V208.451C178.438 206.341 177.559 205.298 175.695 205.298C173.832 205.298 172.672 206.576 172.672 208.626V216.091H170.129ZM187.602 216.091L182.996 203.365H185.691L188.867 213.513H189.066L192.23 203.365H194.902L190.309 216.091H187.602ZM198.781 201.091C197.902 201.091 197.188 200.376 197.188 199.509C197.188 198.63 197.902 197.916 198.781 197.916C199.648 197.916 200.375 198.63 200.375 199.509C200.375 200.376 199.648 201.091 198.781 201.091ZM197.504 216.091V203.365H200.035V216.091H197.504ZM208.543 216.173C205.742 216.173 204.594 215.189 204.594 212.74V205.369H202.602V203.365H204.594V200.154H207.184V203.365H209.914V205.369H207.184V212.13C207.184 213.501 207.699 214.064 208.953 214.064C209.34 214.064 209.562 214.052 209.914 214.017V216.044C209.504 216.115 209.035 216.173 208.543 216.173ZM216.371 216.302C213.945 216.302 212.152 214.826 212.152 212.517V212.494C212.152 210.22 213.863 208.896 216.898 208.708L220.344 208.509V207.384C220.344 205.99 219.465 205.216 217.742 205.216C216.336 205.216 215.41 205.732 215.105 206.634L215.094 206.681H212.645L212.656 206.599C212.961 204.513 214.965 203.119 217.859 203.119C221.059 203.119 222.863 204.712 222.863 207.384V216.091H220.344V214.287H220.145C219.395 215.576 218.059 216.302 216.371 216.302ZM214.684 212.412C214.684 213.583 215.68 214.275 217.051 214.275C218.949 214.275 220.344 213.033 220.344 211.392V210.302L217.238 210.501C215.48 210.607 214.684 211.24 214.684 212.388V212.412ZM231.254 216.173C228.453 216.173 227.305 215.189 227.305 212.74V205.369H225.312V203.365H227.305V200.154H229.895V203.365H232.625V205.369H229.895V212.13C229.895 213.501 230.41 214.064 231.664 214.064C232.051 214.064 232.273 214.052 232.625 214.017V216.044C232.215 216.115 231.746 216.173 231.254 216.173ZM236.914 201.091C236.035 201.091 235.32 200.376 235.32 199.509C235.32 198.63 236.035 197.916 236.914 197.916C237.781 197.916 238.508 198.63 238.508 199.509C238.508 200.376 237.781 201.091 236.914 201.091ZM235.637 216.091V203.365H238.168V216.091H235.637ZM247.262 216.337C243.523 216.337 241.238 213.841 241.238 209.74V209.716C241.238 205.626 243.535 203.119 247.262 203.119C250.977 203.119 253.273 205.615 253.273 209.716V209.74C253.273 213.841 250.988 216.337 247.262 216.337ZM247.262 214.216C249.441 214.216 250.684 212.552 250.684 209.74V209.716C250.684 206.892 249.441 205.24 247.262 205.24C245.07 205.24 243.84 206.892 243.84 209.716V209.74C243.84 212.564 245.07 214.216 247.262 214.216ZM256.309 216.091V203.365H258.852V205.298H259.039C259.66 203.939 260.879 203.119 262.73 203.119C265.578 203.119 267.148 204.818 267.148 207.853V216.091H264.617V208.451C264.617 206.341 263.738 205.298 261.875 205.298C260.012 205.298 258.852 206.576 258.852 208.626V216.091H256.309ZM283.273 216.501C279.453 216.501 277.004 214.568 276.77 211.72L276.758 211.568H279.336L279.348 211.697C279.488 213.232 281.117 214.216 283.379 214.216C285.535 214.216 287.07 213.138 287.07 211.568V211.556C287.07 210.255 286.156 209.412 283.918 208.931L282.066 208.533C278.633 207.806 277.156 206.212 277.156 203.716V203.705C277.168 200.787 279.699 198.771 283.285 198.771C286.871 198.771 289.215 200.798 289.402 203.423L289.414 203.587H286.871L286.848 203.435C286.625 202.052 285.301 201.044 283.25 201.056C281.27 201.056 279.805 201.982 279.805 203.576V203.587C279.805 204.841 280.695 205.662 282.887 206.13L284.727 206.541C288.277 207.302 289.73 208.732 289.73 211.24V211.251C289.73 214.486 287.211 216.501 283.273 216.501ZM298.238 216.337C294.512 216.337 292.262 213.794 292.262 209.763V209.751C292.262 205.779 294.559 203.119 298.109 203.119C301.66 203.119 303.84 205.685 303.84 209.505V210.396H294.816C294.863 212.833 296.199 214.251 298.297 214.251C299.926 214.251 300.898 213.443 301.203 212.787L301.25 212.693L303.699 212.681L303.676 212.787C303.254 214.462 301.496 216.337 298.238 216.337ZM298.121 205.205C296.387 205.205 295.074 206.388 294.852 208.58H301.32C301.121 206.306 299.844 205.205 298.121 205.205ZM306.863 216.091V203.365H309.406V205.298H309.594C310.215 203.939 311.434 203.119 313.285 203.119C316.133 203.119 317.703 204.818 317.703 207.853V216.091H315.172V208.451C315.172 206.341 314.293 205.298 312.43 205.298C310.566 205.298 309.406 206.576 309.406 208.626V216.091H306.863ZM326.059 216.173C323.258 216.173 322.109 215.189 322.109 212.74V205.369H320.117V203.365H322.109V200.154H324.699V203.365H327.43V205.369H324.699V212.13C324.699 213.501 325.215 214.064 326.469 214.064C326.855 214.064 327.078 214.052 327.43 214.017V216.044C327.02 216.115 326.551 216.173 326.059 216.173Z" fill="#19C84D"/>
<defs>
<filter id="filter0_dd_7823_19467" x="0.5625" y="-164" width="503.25" height="503.199" filterUnits="userSpaceOnUse" color-interpolation-filters="sRGB">
<feFlood flood-opacity="0" result="BackgroundImageFix"/>
<feColorMatrix in="SourceAlpha" type="matrix" values="0 0 0 0 0 0 0 0 0 0 0 0 0 0 0 0 0 0 127 0" result="hardAlpha"/>
<feMorphology radius="4" operator="dilate" in="SourceAlpha" result="effect1_dropShadow_7823_19467"/>
<feOffset/>
<feGaussianBlur stdDeviation="16"/>
<feComposite in2="hardAlpha" operator="out"/>
<feColorMatrix type="matrix" values="0 0 0 0 0.482353 0 0 0 0 0.890196 0 0 0 0 0.603922 0 0 0 0.41 0"/>
<feBlend mode="normal" in2="BackgroundImageFix" result="effect1_dropShadow_7823_19467"/>
<feColorMatrix in="SourceAlpha" type="matrix" values="0 0 0 0 0 0 0 0 0 0 0 0 0 0 0 0 0 0 127 0" result="hardAlpha"/>
<feMorphology radius="2" operator="dilate" in="SourceAlpha" result="effect2_dropShadow_7823_19467"/>
<feOffset/>
<feGaussianBlur stdDeviation="100"/>
<feComposite in2="hardAlpha" operator="out"/>
<feColorMatrix type="matrix" values="0 0 0 0 0.482353 0 0 0 0 0.890196 0 0 0 0 0.603922 0 0 0 0.13 0"/>
<feBlend mode="normal" in2="effect1_dropShadow_7823_19467" result="effect2_dropShadow_7823_19467"/>
<feBlend mode="normal" in="SourceGraphic" in2="effect2_dropShadow_7823_19467" result="shape"/>
</filter>
<linearGradient id="paint0_linear_7823_19467" x1="0.45155" y1="0" x2="0.45155" y2="34.3178" gradientUnits="userSpaceOnUse">
<stop stop-color="white"/>
<stop offset="1" stop-color="#7BE39A" stop-opacity="0"/>
</linearGradient>
</defs>
</svg>
