<svg width="375" height="376" viewBox="0 0 375 376" fill="none" xmlns="http://www.w3.org/2000/svg">
<g filter="url(#filter0_dd_7823_19467)">
<ellipse cx="187.47" cy="188.244" rx="31.736" ry="31.7163" fill="#7BE39A" shape-rendering="crispEdges"/>
<path d="M187.47 222.566C206.435 222.566 221.812 207.201 221.812 188.244C221.812 169.287 206.435 153.922 187.47 153.922C168.505 153.922 153.129 169.287 153.129 188.244C153.129 207.201 168.505 222.566 187.47 222.566Z" stroke="#077B29" stroke-opacity="0.2" stroke-width="5.21167" shape-rendering="crispEdges"/>
</g>
<path d="M177.062 190.315L183.636 197.76L199.412 179.892" stroke="#0E5323" stroke-width="3.72262" stroke-linecap="round" stroke-linejoin="round"/>
<rect opacity="0.4" x="265.559" y="156.551" width="0.67238" height="25.5505" rx="0.33619" fill="url(#paint0_linear_7823_19467)"/>
<rect opacity="0.4" x="235.973" y="129.656" width="0.67238" height="25.5505" rx="0.33619" fill="url(#paint1_linear_7823_19467)"/>
<circle opacity="0.4" cx="134.109" cy="166.973" r="4.37047" fill="#7BE39A"/>
<circle opacity="0.4" cx="219.838" cy="159.24" r="8.06856" fill="#7BE39A"/>
<circle opacity="0.4" cx="148.565" cy="234.548" r="8.06856" fill="#7BE39A"/>
<circle opacity="0.4" cx="240.01" cy="226.479" r="8.06856" fill="#7BE39A"/>
<circle opacity="0.4" cx="130.409" cy="210.343" r="3.3619" fill="white"/>
<circle opacity="0.4" cx="231.264" cy="192.187" r="3.3619" fill="white"/>
<circle opacity="0.4" cx="102.842" cy="165.964" r="3.3619" fill="#FFD53D"/>
<circle opacity="0.4" cx="251.435" cy="167.31" r="2.01714" fill="#FFD53D"/>
<circle opacity="0.4" cx="119.654" cy="228.497" r="2.01714" fill="#FFD53D"/>
<circle opacity="0.4" cx="253.455" cy="133.018" r="2.01714" fill="#FFD53D"/>
<circle opacity="0.4" cx="166.047" cy="139.742" r="4.70666" fill="#7BE39A"/>
<rect opacity="0.4" x="114.945" y="197.567" width="0.67238" height="25.5505" rx="0.33619" fill="url(#paint2_linear_7823_19467)"/>
<rect opacity="0.4" x="125.703" y="136.382" width="0.67238" height="25.5505" rx="0.33619" fill="url(#paint3_linear_7823_19467)"/>
<rect opacity="0.4" width="0.67238" height="25.5505" rx="0.33619" transform="matrix(-1 0 0 1 88.7227 190.842)" fill="url(#paint4_linear_7823_19467)"/>
<rect opacity="0.4" width="0.67238" height="25.5505" rx="0.33619" transform="matrix(-1 0 0 1 287.746 197.567)" fill="url(#paint5_linear_7823_19467)"/>
<rect opacity="0.4" width="0.67238" height="25.5505" rx="0.33619" transform="matrix(-1 0 0 1 73.9297 139.74)" fill="url(#paint6_linear_7823_19467)"/>
<path d="M113.852 278.113V261.203H116.477V278.113H113.852ZM120.426 278.113V265.387H122.969V267.32H123.156C123.777 265.961 124.996 265.141 126.848 265.141C129.695 265.141 131.266 266.84 131.266 269.875V278.113H128.734V270.473C128.734 268.363 127.855 267.32 125.992 267.32C124.129 267.32 122.969 268.598 122.969 270.648V278.113H120.426ZM137.898 278.113L133.293 265.387H135.988L139.164 275.535H139.363L142.527 265.387H145.199L140.605 278.113H137.898ZM149.078 263.113C148.199 263.113 147.484 262.398 147.484 261.531C147.484 260.652 148.199 259.938 149.078 259.938C149.945 259.938 150.672 260.652 150.672 261.531C150.672 262.398 149.945 263.113 149.078 263.113ZM147.801 278.113V265.387H150.332V278.113H147.801ZM158.84 278.195C156.039 278.195 154.891 277.211 154.891 274.762V267.391H152.898V265.387H154.891V262.176H157.48V265.387H160.211V267.391H157.48V274.152C157.48 275.523 157.996 276.086 159.25 276.086C159.637 276.086 159.859 276.074 160.211 276.039V278.066C159.801 278.137 159.332 278.195 158.84 278.195ZM166.668 278.324C164.242 278.324 162.449 276.848 162.449 274.539V274.516C162.449 272.242 164.16 270.918 167.195 270.73L170.641 270.531V269.406C170.641 268.012 169.762 267.238 168.039 267.238C166.633 267.238 165.707 267.754 165.402 268.656L165.391 268.703H162.941L162.953 268.621C163.258 266.535 165.262 265.141 168.156 265.141C171.355 265.141 173.16 266.734 173.16 269.406V278.113H170.641V276.309H170.441C169.691 277.598 168.355 278.324 166.668 278.324ZM164.98 274.434C164.98 275.605 165.977 276.297 167.348 276.297C169.246 276.297 170.641 275.055 170.641 273.414V272.324L167.535 272.523C165.777 272.629 164.98 273.262 164.98 274.41V274.434ZM181.551 278.195C178.75 278.195 177.602 277.211 177.602 274.762V267.391H175.609V265.387H177.602V262.176H180.191V265.387H182.922V267.391H180.191V274.152C180.191 275.523 180.707 276.086 181.961 276.086C182.348 276.086 182.57 276.074 182.922 276.039V278.066C182.512 278.137 182.043 278.195 181.551 278.195ZM187.211 263.113C186.332 263.113 185.617 262.398 185.617 261.531C185.617 260.652 186.332 259.938 187.211 259.938C188.078 259.938 188.805 260.652 188.805 261.531C188.805 262.398 188.078 263.113 187.211 263.113ZM185.934 278.113V265.387H188.465V278.113H185.934ZM197.559 278.359C193.82 278.359 191.535 275.863 191.535 271.762V271.738C191.535 267.648 193.832 265.141 197.559 265.141C201.273 265.141 203.57 267.637 203.57 271.738V271.762C203.57 275.863 201.285 278.359 197.559 278.359ZM197.559 276.238C199.738 276.238 200.98 274.574 200.98 271.762V271.738C200.98 268.914 199.738 267.262 197.559 267.262C195.367 267.262 194.137 268.914 194.137 271.738V271.762C194.137 274.586 195.367 276.238 197.559 276.238ZM206.605 278.113V265.387H209.148V267.32H209.336C209.957 265.961 211.176 265.141 213.027 265.141C215.875 265.141 217.445 266.84 217.445 269.875V278.113H214.914V270.473C214.914 268.363 214.035 267.32 212.172 267.32C210.309 267.32 209.148 268.598 209.148 270.648V278.113H206.605ZM233.57 278.523C229.75 278.523 227.301 276.59 227.066 273.742L227.055 273.59H229.633L229.645 273.719C229.785 275.254 231.414 276.238 233.676 276.238C235.832 276.238 237.367 275.16 237.367 273.59V273.578C237.367 272.277 236.453 271.434 234.215 270.953L232.363 270.555C228.93 269.828 227.453 268.234 227.453 265.738V265.727C227.465 262.809 229.996 260.793 233.582 260.793C237.168 260.793 239.512 262.82 239.699 265.445L239.711 265.609H237.168L237.145 265.457C236.922 264.074 235.598 263.066 233.547 263.078C231.566 263.078 230.102 264.004 230.102 265.598V265.609C230.102 266.863 230.992 267.684 233.184 268.152L235.023 268.562C238.574 269.324 240.027 270.754 240.027 273.262V273.273C240.027 276.508 237.508 278.523 233.57 278.523ZM248.535 278.359C244.809 278.359 242.559 275.816 242.559 271.785V271.773C242.559 267.801 244.855 265.141 248.406 265.141C251.957 265.141 254.137 267.707 254.137 271.527V272.418H245.113C245.16 274.855 246.496 276.273 248.594 276.273C250.223 276.273 251.195 275.465 251.5 274.809L251.547 274.715L253.996 274.703L253.973 274.809C253.551 276.484 251.793 278.359 248.535 278.359ZM248.418 267.227C246.684 267.227 245.371 268.41 245.148 270.602H251.617C251.418 268.328 250.141 267.227 248.418 267.227ZM257.16 278.113V265.387H259.703V267.32H259.891C260.512 265.961 261.73 265.141 263.582 265.141C266.43 265.141 268 266.84 268 269.875V278.113H265.469V270.473C265.469 268.363 264.59 267.32 262.727 267.32C260.863 267.32 259.703 268.598 259.703 270.648V278.113H257.16ZM276.355 278.195C273.555 278.195 272.406 277.211 272.406 274.762V267.391H270.414V265.387H272.406V262.176H274.996V265.387H277.727V267.391H274.996V274.152C274.996 275.523 275.512 276.086 276.766 276.086C277.152 276.086 277.375 276.074 277.727 276.039V278.066C277.316 278.137 276.848 278.195 276.355 278.195Z" fill="#19C84D"/>
<defs>
<filter id="filter0_dd_7823_19467" x="0.129481" y="0.921473" width="374.682" height="374.644" filterUnits="userSpaceOnUse" color-interpolation-filters="sRGB">
<feFlood flood-opacity="0" result="BackgroundImageFix"/>
<feColorMatrix in="SourceAlpha" type="matrix" values="0 0 0 0 0 0 0 0 0 0 0 0 0 0 0 0 0 0 127 0" result="hardAlpha"/>
<feMorphology radius="2.9781" operator="dilate" in="SourceAlpha" result="effect1_dropShadow_7823_19467"/>
<feOffset/>
<feGaussianBlur stdDeviation="11.9124"/>
<feComposite in2="hardAlpha" operator="out"/>
<feColorMatrix type="matrix" values="0 0 0 0 0.482353 0 0 0 0 0.890196 0 0 0 0 0.603922 0 0 0 0.41 0"/>
<feBlend mode="normal" in2="BackgroundImageFix" result="effect1_dropShadow_7823_19467"/>
<feColorMatrix in="SourceAlpha" type="matrix" values="0 0 0 0 0 0 0 0 0 0 0 0 0 0 0 0 0 0 127 0" result="hardAlpha"/>
<feMorphology radius="1.48905" operator="dilate" in="SourceAlpha" result="effect2_dropShadow_7823_19467"/>
<feOffset/>
<feGaussianBlur stdDeviation="74.4525"/>
<feComposite in2="hardAlpha" operator="out"/>
<feColorMatrix type="matrix" values="0 0 0 0 0.482353 0 0 0 0 0.890196 0 0 0 0 0.603922 0 0 0 0.13 0"/>
<feBlend mode="normal" in2="effect1_dropShadow_7823_19467" result="effect2_dropShadow_7823_19467"/>
<feBlend mode="normal" in="SourceGraphic" in2="effect2_dropShadow_7823_19467" result="shape"/>
</filter>
<linearGradient id="paint0_linear_7823_19467" x1="265.895" y1="156.551" x2="265.895" y2="182.101" gradientUnits="userSpaceOnUse">
<stop stop-color="#7BE39A"/>
<stop offset="1" stop-color="#7BE39A" stop-opacity="0"/>
</linearGradient>
<linearGradient id="paint1_linear_7823_19467" x1="236.309" y1="129.656" x2="236.309" y2="155.207" gradientUnits="userSpaceOnUse">
<stop stop-color="#7BE39A"/>
<stop offset="1" stop-color="#7BE39A" stop-opacity="0"/>
</linearGradient>
<linearGradient id="paint2_linear_7823_19467" x1="115.282" y1="197.567" x2="115.282" y2="223.118" gradientUnits="userSpaceOnUse">
<stop stop-color="#7BE39A"/>
<stop offset="1" stop-color="#7BE39A" stop-opacity="0"/>
</linearGradient>
<linearGradient id="paint3_linear_7823_19467" x1="126.039" y1="136.382" x2="126.039" y2="161.932" gradientUnits="userSpaceOnUse">
<stop stop-color="#7BE39A"/>
<stop offset="1" stop-color="#7BE39A" stop-opacity="0"/>
</linearGradient>
<linearGradient id="paint4_linear_7823_19467" x1="0.33619" y1="0" x2="0.33619" y2="25.5505" gradientUnits="userSpaceOnUse">
<stop stop-color="white"/>
<stop offset="1" stop-color="#7BE39A" stop-opacity="0"/>
</linearGradient>
<linearGradient id="paint5_linear_7823_19467" x1="0.33619" y1="0" x2="0.33619" y2="25.5505" gradientUnits="userSpaceOnUse">
<stop stop-color="white"/>
<stop offset="1" stop-color="#7BE39A" stop-opacity="0"/>
</linearGradient>
<linearGradient id="paint6_linear_7823_19467" x1="0.33619" y1="0" x2="0.33619" y2="25.5505" gradientUnits="userSpaceOnUse">
<stop stop-color="white"/>
<stop offset="1" stop-color="#7BE39A" stop-opacity="0"/>
</linearGradient>
</defs>
</svg>
